<svg width="30" height="30" viewBox="0 0 30 30" fill="none" xmlns="http://www.w3.org/2000/svg">
<g clip-path="url(#clip0_372_4126)">
<path d="M28.3833 22.0059L25.4699 19.0925C24.9427 18.5655 24.2823 18.1916 23.5592 18.0104C22.8361 17.8293 22.0773 17.8479 21.3639 18.0641C20.6505 18.2804 20.0092 18.6862 19.5083 19.2383C19.0075 19.7904 18.6659 20.4682 18.5199 21.1992C13.7158 20.3009 9.04328 15.6475 8.75245 11.4884C9.56918 11.3381 10.3208 10.9428 10.9074 10.355C11.6798 9.58254 12.1137 8.5349 12.1137 7.44252C12.1137 6.35014 11.6798 5.3025 10.9074 4.53002L7.99495 1.61669C7.22247 0.844309 6.17482 0.4104 5.08245 0.4104C3.99007 0.4104 2.94242 0.844309 2.16995 1.61669C-6.56839 10.355 19.6449 36.5684 28.3833 27.83C29.1552 27.0575 29.5888 26.01 29.5888 24.9179C29.5888 23.8258 29.1552 22.7784 28.3833 22.0059Z" fill="black"/>
</g>
<defs>
<clipPath id="clip0_372_4126">
<rect width="30" height="30" fill="white"/>
</clipPath>
</defs>
</svg>
