<svg width="22" height="18" viewBox="0 0 22 18" fill="none" xmlns="http://www.w3.org/2000/svg">
<g clip-path="url(#clip0_372_3858)">
<path d="M5.00071 17.9116V8.68687L2.36473 6.06959L0.000976562 4.61719V16.2837C0.000976562 17.1845 0.673399 17.9116 1.50093 17.9116H5.00071Z" fill="#4285F4"/>
<path d="M17 17.9115H20.4998C21.3298 17.9115 21.9997 17.1817 21.9997 16.2836V4.61719L19.3224 6.28074L17 8.68677V17.9115Z" fill="#34A853"/>
<path d="M5.00028 8.68646L4.6416 5.08208L5.00028 1.63232L10.9999 6.51601L16.9996 1.63232L17.4008 4.89583L16.9996 8.68646L10.9999 13.5701L5.00028 8.68646Z" fill="#EA4335"/>
<path d="M17 1.63247V8.6866L21.9997 4.61692V2.44639C21.9997 0.433277 19.8824 -0.71434 18.4 0.492966L17 1.63247Z" fill="#FBBC04"/>
<path d="M0.000976562 4.61697L2.30045 6.48878L5.00071 8.68665V1.63251L3.60069 0.493009C2.11578 -0.71439 0.000976562 0.43332 0.000976562 2.44634V4.61687V4.61697Z" fill="#C5221F"/>
</g>
<defs>
<clipPath id="clip0_372_3858">
<rect width="22" height="18" fill="white"/>
</clipPath>
</defs>
</svg>
