<svg width="22" height="22" viewBox="0 0 22 22" fill="none" xmlns="http://www.w3.org/2000/svg">
<g clip-path="url(#clip0_372_4004)">
<path d="M11 0C8.08328 0 5.28344 1.15964 3.22266 3.2218C1.15975 5.28477 0.000571433 8.08256 0 11C0 13.9162 1.16016 16.716 3.22266 18.7782C5.28344 20.8404 8.08328 22 11 22C13.9167 22 16.7166 20.8404 18.7773 18.7782C20.8398 16.716 22 13.9162 22 11C22 8.0838 20.8398 5.28395 18.7773 3.2218C16.7166 1.15964 13.9167 0 11 0Z" fill="url(#paint0_linear_372_4004)"/>
<path d="M4.97927 10.8838C8.18646 9.48681 10.3246 8.56573 11.3936 8.12075C14.4496 6.85008 15.0838 6.62939 15.498 6.62191C15.5891 6.62045 15.7919 6.64297 15.9243 6.74996C16.0343 6.8402 16.0652 6.96223 16.0807 7.04791C16.0944 7.1335 16.1133 7.32858 16.0979 7.48086C15.9329 9.22023 15.2161 13.4411 14.8518 15.3893C14.6988 16.2137 14.3946 16.49 14.1007 16.517C13.4613 16.5758 12.9766 16.0949 12.3579 15.6894C11.3902 15.0547 10.8436 14.6597 9.90349 14.0405C8.81724 13.3248 9.52193 12.9314 10.1407 12.2885C10.3022 12.1203 13.1176 9.5602 13.1708 9.328C13.1777 9.29895 13.1846 9.19067 13.1193 9.13361C13.0557 9.07638 12.9611 9.09597 12.8924 9.11144C12.7944 9.13344 11.2493 10.1558 8.25177 12.1782C7.81349 12.4797 7.41646 12.6266 7.05896 12.6189C6.66708 12.6105 5.91083 12.3968 5.3488 12.2143C4.6613 11.9903 4.11302 11.8719 4.16115 11.4916C4.18521 11.2936 4.45849 11.0909 4.97927 10.8838Z" fill="white"/>
</g>
<defs>
<linearGradient id="paint0_linear_372_4004" x1="1100" y1="0" x2="1100" y2="2200" gradientUnits="userSpaceOnUse">
<stop stop-color="#2AABEE"/>
<stop offset="1" stop-color="#229ED9"/>
</linearGradient>
<clipPath id="clip0_372_4004">
<rect width="22" height="22" fill="white"/>
</clipPath>
</defs>
</svg>
