<svg width="22" height="22" viewBox="0 0 22 22" fill="none" xmlns="http://www.w3.org/2000/svg">
<rect x="3.8501" y="3.85" width="13.75" height="12.1" fill="white"/>
<path fill-rule="evenodd" clip-rule="evenodd" d="M15.752 1.6243C12.6222 0.92523 9.37664 0.92523 6.24689 1.6243L5.90966 1.69886C5.0293 1.89553 4.22074 2.33223 3.5738 2.96043C2.92685 3.58863 2.46686 4.38375 2.24491 5.25745C1.45157 8.38118 1.45157 11.6534 2.24491 14.7772C2.45657 15.6104 2.88495 16.3729 3.48662 16.9874C4.08829 17.6019 4.84185 18.0465 5.67092 18.2761L6.13349 21.0355C6.14825 21.1231 6.18626 21.2052 6.24354 21.2732C6.30083 21.3411 6.3753 21.3925 6.4592 21.4219C6.5431 21.4514 6.63337 21.4578 6.7206 21.4405C6.80783 21.4233 6.88883 21.383 6.95517 21.3238L9.67191 18.8954C11.7113 19.0198 13.758 18.8568 15.752 18.4113L16.0902 18.3368C16.9706 18.1401 17.7791 17.7034 18.4261 17.0752C19.073 16.447 19.533 15.6519 19.755 14.7782C20.5482 11.6544 20.5482 8.38218 19.755 5.25844C19.5329 4.38461 19.0728 3.58941 18.4257 2.9612C17.7785 2.33299 16.9698 1.89636 16.0892 1.69985L15.752 1.6243ZM7.08648 5.17693C6.9016 5.15004 6.71308 5.18723 6.55229 5.2823H6.53836C6.16532 5.50098 5.82909 5.77632 5.54259 6.10037C5.30384 6.37572 5.17452 6.65404 5.1407 6.92243C5.1208 7.08147 5.13473 7.2425 5.18149 7.39459L5.19939 7.40453C5.46798 8.19279 5.81814 8.95122 6.2459 9.66493C6.79745 10.6674 7.47619 11.5945 8.26529 12.4233L8.28917 12.4571L8.32697 12.485L8.34985 12.5118L8.3777 12.5357C9.21006 13.3265 10.1401 14.008 11.1452 14.5635C12.2941 15.1887 12.9915 15.4839 13.4103 15.6072V15.6131C13.5326 15.6509 13.6441 15.6678 13.7565 15.6678C14.1131 15.6415 14.4507 15.4966 14.7154 15.2563C15.0387 14.97 15.3123 14.633 15.5252 14.2583V14.2513C15.7251 13.8736 15.6575 13.5177 15.369 13.2762C14.7895 12.7703 14.1629 12.3209 13.4978 11.9343C13.0522 11.6927 12.5995 11.8389 12.4165 12.0834L12.0255 12.5764C11.8246 12.8209 11.4605 12.7871 11.4605 12.7871L11.4506 12.7931C8.73383 12.1003 8.00864 9.35181 8.00864 9.35181C8.00864 9.35181 7.97482 8.97806 8.2265 8.78721L8.71593 8.39358C8.95069 8.20273 9.11384 7.75144 8.86216 7.30612C8.47778 6.64088 8.02898 6.01496 7.5222 5.43736C7.41166 5.30143 7.25666 5.20884 7.08449 5.17594L7.08648 5.17693ZM11.6764 3.98212C11.5445 3.98212 11.418 4.03448 11.3247 4.12769C11.2314 4.2209 11.179 4.34731 11.179 4.47913C11.179 4.61094 11.2314 4.73736 11.3247 4.83057C11.418 4.92377 11.5445 4.97614 11.6764 4.97614C12.9348 4.97614 13.9793 5.38667 14.8059 6.17393C15.2307 6.60434 15.562 7.11427 15.7788 7.67291C15.9967 8.23255 16.0962 8.82995 16.0703 9.42835C16.0676 9.49362 16.0777 9.55879 16.1002 9.62014C16.1226 9.68149 16.157 9.73781 16.2012 9.7859C16.2906 9.88303 16.4149 9.9407 16.5468 9.94624C16.6787 9.95177 16.8074 9.90472 16.9046 9.81543C17.0018 9.72613 17.0595 9.60192 17.0651 9.4701C17.0959 8.73401 16.9737 7.99954 16.706 7.31308C16.4371 6.62336 16.0295 5.99612 15.5083 5.47017L15.4983 5.46023C14.4727 4.48112 13.1745 3.98212 11.6764 3.98212ZM11.6426 5.61629C11.5106 5.61629 11.3841 5.66865 11.2909 5.76186C11.1976 5.85507 11.1452 5.98148 11.1452 6.1133C11.1452 6.24511 11.1976 6.37153 11.2909 6.46474C11.3841 6.55794 11.5106 6.61031 11.6426 6.61031H11.6595C12.5667 6.67492 13.2272 6.9771 13.6898 7.47312C14.1643 7.98404 14.41 8.61922 14.3911 9.4045C14.3881 9.53631 14.4376 9.66393 14.5287 9.75928C14.6199 9.85463 14.7452 9.90991 14.8771 9.91294C15.009 9.91597 15.1367 9.86651 15.2321 9.77545C15.3276 9.68439 15.3829 9.55917 15.3859 9.42736C15.4098 8.39656 15.0775 7.50691 14.419 6.79718V6.79519C13.7455 6.07354 12.8214 5.69183 11.7092 5.61728L11.6923 5.61529L11.6426 5.61629ZM11.6237 7.28127C11.5571 7.2754 11.49 7.28299 11.4265 7.3036C11.3629 7.3242 11.3041 7.35739 11.2537 7.40119C11.2033 7.44498 11.1622 7.49848 11.1329 7.5585C11.1036 7.61852 11.0867 7.68381 11.0832 7.75049C11.0797 7.81718 11.0898 7.88387 11.1126 7.94661C11.1355 8.00934 11.1708 8.06682 11.2165 8.11562C11.2621 8.16441 11.3171 8.20352 11.3781 8.23062C11.4392 8.25771 11.5051 8.27223 11.5719 8.2733C11.9877 8.29517 12.2534 8.42042 12.4205 8.58841C12.5886 8.75739 12.7139 9.02876 12.7368 9.4532C12.7381 9.5199 12.7527 9.58567 12.7799 9.64658C12.8072 9.70749 12.8464 9.76231 12.8952 9.80776C12.9441 9.85321 13.0016 9.88837 13.0644 9.91113C13.1271 9.9339 13.1938 9.94381 13.2605 9.94027C13.3272 9.93673 13.3924 9.91982 13.4524 9.89054C13.5124 9.86126 13.5659 9.82022 13.6097 9.76985C13.6534 9.71948 13.6866 9.66083 13.7072 9.59737C13.7278 9.53392 13.7354 9.46697 13.7296 9.40052C13.6978 8.80411 13.5107 8.27728 13.1278 7.88961C12.7428 7.50194 12.2185 7.31308 11.6237 7.28127Z" fill="#7C509A"/>
</svg>
