<svg width="22" height="22" viewBox="0 0 22 22" fill="none" xmlns="http://www.w3.org/2000/svg">
<path d="M11 4.8125C11 4.63016 10.9276 4.4553 10.7986 4.32636C10.6697 4.19743 10.4948 4.125 10.3125 4.125C10.1302 4.125 9.9553 4.19743 9.82636 4.32636C9.69743 4.4553 9.625 4.63016 9.625 4.8125V12.375C9.62504 12.4962 9.65711 12.6152 9.71796 12.72C9.77881 12.8248 9.86628 12.9116 9.9715 12.9718L14.784 15.7218C14.9419 15.8071 15.127 15.8273 15.2996 15.778C15.4722 15.7287 15.6187 15.6139 15.7078 15.458C15.7969 15.3022 15.8214 15.1176 15.7762 14.9439C15.7311 14.7702 15.6197 14.621 15.466 14.5282L11 11.9763V4.8125Z" fill="black"/>
<path d="M11 22C13.9174 22 16.7153 20.8411 18.7782 18.7782C20.8411 16.7153 22 13.9174 22 11C22 8.08262 20.8411 5.28473 18.7782 3.22183C16.7153 1.15893 13.9174 0 11 0C8.08262 0 5.28473 1.15893 3.22183 3.22183C1.15893 5.28473 0 8.08262 0 11C0 13.9174 1.15893 16.7153 3.22183 18.7782C5.28473 20.8411 8.08262 22 11 22ZM20.625 11C20.625 13.5527 19.6109 16.0009 17.8059 17.8059C16.0009 19.6109 13.5527 20.625 11 20.625C8.44729 20.625 5.99913 19.6109 4.1941 17.8059C2.38906 16.0009 1.375 13.5527 1.375 11C1.375 8.44729 2.38906 5.99913 4.1941 4.1941C5.99913 2.38906 8.44729 1.375 11 1.375C13.5527 1.375 16.0009 2.38906 17.8059 4.1941C19.6109 5.99913 20.625 8.44729 20.625 11Z" fill="black"/>
</svg>
