<svg width="22" height="22" viewBox="0 0 22 22" fill="none" xmlns="http://www.w3.org/2000/svg">
<g clip-path="url(#clip0_372_3983)">
<path d="M7.23145 16.2971C7.86772 17.1079 8.44681 17.9621 8.96453 18.8533C9.40657 19.6914 9.59084 20.2598 9.91389 21.2697C10.112 21.8277 10.2911 21.9942 10.676 21.9942C11.0955 21.9942 11.2859 21.7109 11.4329 21.2727C11.7383 20.319 11.9779 19.5911 12.3559 18.9034C13.0977 17.5756 14.0194 16.3957 14.925 15.2617C15.1702 14.9408 16.7554 13.071 17.4691 11.5957C17.4691 11.5957 18.3462 9.97505 18.3462 7.71169C18.3462 5.59453 17.4812 4.12617 17.4812 4.12617L14.9907 4.79312L13.4783 8.77656L13.1041 9.32584L13.0293 9.42535L12.9298 9.54992L12.7551 9.74888L12.5055 9.99843L11.1587 11.0957L7.79158 13.0398L7.23145 16.2971Z" fill="#34A853"/>
<path d="M3.75586 11.3232C4.57765 13.2003 6.16237 14.8504 7.23456 16.2984L12.9294 9.55249C12.9294 9.55249 12.1271 10.6018 10.6718 10.6018C9.05067 10.6018 7.74104 9.30726 7.74104 7.67494C7.74104 6.55558 8.41446 5.7866 8.41446 5.7866L4.54864 6.82246L3.75586 11.3232Z" fill="#FBBC04"/>
<path d="M12.9934 0.346904C14.8848 0.956729 16.5037 2.23699 17.4829 4.12485L12.9315 9.5486C12.9315 9.5486 13.605 8.76571 13.605 7.6533C13.605 5.98298 12.1985 4.73515 10.679 4.73515C9.2422 4.73515 8.41699 5.7827 8.41699 5.7827V2.36581L12.9934 0.346844V0.346904Z" fill="#4285F4"/>
<path d="M4.79883 2.74341C5.9285 1.39181 7.91629 0 10.6568 0C11.9864 0 12.988 0.349063 12.988 0.349063L8.41204 5.7857H5.16989L4.79883 2.74341Z" fill="#1A73E8"/>
<path d="M3.75603 11.3232C3.75603 11.3232 3 9.84269 3 7.69784C3 5.67066 3.78804 3.89867 4.79926 2.7434L8.41506 5.78618L3.75603 11.3232Z" fill="#EA4335"/>
</g>
<defs>
<clipPath id="clip0_372_3983">
<rect width="15.346" height="22" fill="white" transform="translate(3)"/>
</clipPath>
</defs>
</svg>
