<svg width="22" height="22" viewBox="0 0 22 22" fill="none" xmlns="http://www.w3.org/2000/svg">
<g clip-path="url(#clip0_372_3803)">
<path d="M16.8447 0H5.15723C2.30951 0 0.000976562 2.30853 0.000976562 5.15625V16.8438C0.000976562 19.6915 2.30951 22 5.15723 22H16.8447C19.6924 22 22.001 19.6915 22.001 16.8438V5.15625C22.001 2.30853 19.6924 0 16.8447 0Z" fill="url(#paint0_radial_372_3803)"/>
<path d="M16.8447 0H5.15723C2.30951 0 0.000976562 2.30853 0.000976562 5.15625V16.8438C0.000976562 19.6915 2.30951 22 5.15723 22H16.8447C19.6924 22 22.001 19.6915 22.001 16.8438V5.15625C22.001 2.30853 19.6924 0 16.8447 0Z" fill="url(#paint1_radial_372_3803)"/>
<path d="M11.0017 2.40625C8.66786 2.40625 8.3749 2.41648 7.45829 2.45816C6.5434 2.50009 5.91889 2.6449 5.3725 2.85742C4.8072 3.07691 4.32776 3.37055 3.85012 3.84837C3.37205 4.32609 3.0784 4.80554 2.85823 5.37058C2.6451 5.91714 2.50012 6.54191 2.45896 7.45637C2.41797 8.37306 2.40723 8.66611 2.40723 11.0001C2.40723 13.3341 2.41754 13.6261 2.45913 14.5427C2.50124 15.4576 2.64605 16.0821 2.8584 16.6285C3.07805 17.1938 3.3717 17.6732 3.84952 18.1509C4.32707 18.6289 4.80652 18.9233 5.37138 19.1427C5.9182 19.3553 6.5428 19.5001 7.45752 19.542C8.37421 19.5837 8.66691 19.5939 11.0007 19.5939C13.3349 19.5939 13.6269 19.5837 14.5435 19.542C15.4584 19.5001 16.0836 19.3553 16.6304 19.1427C17.1954 18.9233 17.6742 18.6289 18.1517 18.1509C18.6297 17.6732 18.9233 17.1938 19.1436 16.6287C19.3548 16.0821 19.4999 15.4574 19.5428 14.5429C19.584 13.6262 19.5947 13.3341 19.5947 11.0001C19.5947 8.66611 19.584 8.37323 19.5428 7.45654C19.4999 6.54165 19.3548 5.91723 19.1436 5.37084C18.9233 4.80554 18.6297 4.32609 18.1517 3.84837C17.6737 3.37038 17.1956 3.07673 16.6299 2.85751C16.082 2.6449 15.4572 2.50001 14.5423 2.45816C13.6256 2.41648 13.3337 2.40625 10.9991 2.40625H11.0017ZM10.2308 3.95493C10.4597 3.95459 10.715 3.95493 11.0017 3.95493C13.2964 3.95493 13.5683 3.96318 14.4744 4.00434C15.3123 4.04267 15.7671 4.18266 16.07 4.30031C16.4711 4.45603 16.757 4.64226 17.0576 4.94313C17.3584 5.24391 17.5445 5.53034 17.7007 5.93141C17.8183 6.23391 17.9585 6.68869 17.9966 7.52658C18.0378 8.43253 18.0467 8.70461 18.0467 10.9981C18.0467 13.2916 18.0378 13.5638 17.9966 14.4696C17.9583 15.3075 17.8183 15.7623 17.7007 16.0649C17.5449 16.466 17.3584 16.7515 17.0576 17.0521C16.7568 17.3529 16.4712 17.5391 16.07 17.6949C15.7674 17.813 15.3123 17.9527 14.4744 17.991C13.5684 18.0322 13.2964 18.0411 11.0017 18.0411C8.70705 18.0411 8.43505 18.0322 7.52919 17.991C6.6913 17.9523 6.23652 17.8124 5.93333 17.6947C5.53234 17.5389 5.24583 17.3528 4.94505 17.052C4.64427 16.7512 4.45813 16.4655 4.30198 16.0642C4.18433 15.7616 4.04416 15.3068 4.00601 14.469C3.96484 13.563 3.95659 13.2909 3.95659 10.996C3.95659 8.70109 3.96484 8.43038 4.00601 7.52443C4.04434 6.68654 4.18433 6.23176 4.30198 5.92883C4.45778 5.52776 4.64427 5.24133 4.94513 4.94055C5.24591 4.63977 5.53234 4.45354 5.93341 4.29748C6.23634 4.17931 6.6913 4.03966 7.52919 4.00116C8.32196 3.96533 8.62919 3.95459 10.2308 3.95278V3.95493ZM15.5891 5.38184C15.0198 5.38184 14.5578 5.84332 14.5578 6.41274C14.5578 6.98208 15.0198 7.44399 15.5891 7.44399C16.1584 7.44399 16.6203 6.98208 16.6203 6.41274C16.6203 5.84341 16.1584 5.38149 15.5891 5.38149V5.38184ZM11.0017 6.58677C8.56456 6.58677 6.58852 8.56281 6.58852 11.0001C6.58852 13.4374 8.56456 15.4125 11.0017 15.4125C13.439 15.4125 15.4144 13.4374 15.4144 11.0001C15.4144 8.5629 13.4389 6.58677 11.0016 6.58677H11.0017ZM11.0017 8.13545C12.5838 8.13545 13.8664 9.41789 13.8664 11.0001C13.8664 12.5821 12.5838 13.8647 11.0017 13.8647C9.41964 13.8647 8.1372 12.5821 8.1372 11.0001C8.1372 9.41789 9.41964 8.13545 11.0017 8.13545Z" fill="white"/>
</g>
<defs>
<radialGradient id="paint0_radial_372_3803" cx="0" cy="0" r="1" gradientUnits="userSpaceOnUse" gradientTransform="translate(5.84473 23.6944) rotate(-90) scale(21.8036 20.2791)">
<stop stop-color="#FFDD55"/>
<stop offset="0.1" stop-color="#FFDD55"/>
<stop offset="0.5" stop-color="#FF543E"/>
<stop offset="1" stop-color="#C837AB"/>
</radialGradient>
<radialGradient id="paint1_radial_372_3803" cx="0" cy="0" r="1" gradientUnits="userSpaceOnUse" gradientTransform="translate(-3.68411 1.58477) rotate(78.681) scale(9.74634 40.1747)">
<stop stop-color="#3771C8"/>
<stop offset="0.128" stop-color="#3771C8"/>
<stop offset="1" stop-color="#6600FF" stop-opacity="0"/>
</radialGradient>
<clipPath id="clip0_372_3803">
<rect width="22" height="22" fill="white" transform="translate(0.000976562)"/>
</clipPath>
</defs>
</svg>
