<svg width="50" height="50" viewBox="0 0 50 50" fill="none" xmlns="http://www.w3.org/2000/svg">
<g clip-path="url(#clip0_372_4031)">
<rect width="50" height="50" rx="10" fill="white"/>
<rect x="1" y="1" width="48" height="48" rx="9" stroke="#0093DD" stroke-width="2"/>
<path d="M24 37C24 37.5523 24.4477 38 25 38C25.5523 38 26 37.5523 26 37H24ZM25.7071 13.2929C25.3166 12.9024 24.6834 12.9024 24.2929 13.2929L17.9289 19.6569C17.5384 20.0474 17.5384 20.6805 17.9289 21.0711C18.3195 21.4616 18.9526 21.4616 19.3431 21.0711L25 15.4142L30.6569 21.0711C31.0474 21.4616 31.6805 21.4616 32.0711 21.0711C32.4616 20.6805 32.4616 20.0474 32.0711 19.6569L25.7071 13.2929ZM26 37V14H24V37H26Z" fill="#0093DD"/>
</g>
<defs>
<clipPath id="clip0_372_4031">
<rect width="50" height="50" rx="10" fill="white"/>
</clipPath>
</defs>
</svg>
