<svg width="30" height="30" viewBox="0 0 30 30" fill="none" xmlns="http://www.w3.org/2000/svg">
<path d="M10.003 12.6845L8.29688 14.3906L13.7812 19.875L25.9688 7.6875L24.2626 5.98137L13.7812 16.4014L10.003 12.6845ZM24.75 15C24.75 20.3624 20.3623 24.75 15 24.75C9.63768 24.75 5.25 20.3624 5.25 15C5.25 9.63762 9.63762 5.25 15 5.25C15.9141 5.25 16.8281 5.37199 17.6815 5.61568L19.5703 3.72656C18.1689 3.11719 16.6454 2.8125 15 2.8125C8.29688 2.8125 2.8125 8.29688 2.8125 15C2.8125 21.7031 8.29688 27.1875 15 27.1875C21.7031 27.1875 27.1875 21.7031 27.1875 15H24.75Z" fill="#0093DD"/>
</svg>
