<svg width="30" height="24" viewBox="0 0 30 24" fill="none" xmlns="http://www.w3.org/2000/svg">
<g clip-path="url(#clip0_372_4200)">
<path d="M6.81879 23.8818V11.5821L3.22427 8.09242L0.000976562 6.15588V21.7112C0.000976562 22.9122 0.917917 23.8818 2.04637 23.8818H6.81879Z" fill="#0093DD"/>
<path d="M23.1816 23.8818H27.9541C29.0859 23.8818 29.9995 22.9086 29.9995 21.7112V6.15601L26.3486 8.37408L23.1816 11.5821V23.8818Z" fill="#34A853"/>
<path d="M6.81821 11.5821L6.3291 6.7763L6.81821 2.17664L14.9995 8.68822L23.1809 2.17664L23.728 6.52797L23.1809 11.5821L14.9995 18.0937L6.81821 11.5821Z" fill="#EA4335"/>
<path d="M23.1816 2.17662V11.5821L29.9995 6.1559V3.26185C29.9995 0.577703 27.1121 -0.952453 25.0908 0.657288L23.1816 2.17662Z" fill="#FBBC04"/>
<path d="M0.000976562 6.15596L3.13662 8.65171L6.81879 11.5822V2.17668L4.90968 0.657345C2.8848 -0.95252 0.000976562 0.577759 0.000976562 3.26178V6.15583V6.15596Z" fill="#C5221F"/>
</g>
<defs>
<clipPath id="clip0_372_4200">
<rect width="30" height="24" fill="white"/>
</clipPath>
</defs>
</svg>
