<svg width="30" height="30" viewBox="0 0 30 30" fill="none" xmlns="http://www.w3.org/2000/svg">
<rect x="5.25" y="5.25" width="18.75" height="16.5" fill="white"/>
<path fill-rule="evenodd" clip-rule="evenodd" d="M21.4801 2.21496C17.2123 1.26168 12.7865 1.26168 8.51862 2.21496L8.05876 2.31662C6.85827 2.58482 5.75569 3.18031 4.87349 4.03695C3.9913 4.89359 3.36403 5.97784 3.06137 7.16925C1.97954 11.4289 1.97954 15.8911 3.06137 20.1507C3.35 21.2869 3.93416 22.3267 4.75461 23.1647C5.57507 24.0026 6.60266 24.6088 7.7332 24.922L8.36398 28.6848C8.38411 28.8043 8.43594 28.9162 8.51406 29.0089C8.59217 29.1015 8.69372 29.1716 8.80814 29.2117C8.92255 29.2519 9.04564 29.2606 9.16459 29.2371C9.28354 29.2135 9.39399 29.1586 9.48446 29.0779L13.1891 25.7665C15.9701 25.936 18.7611 25.7138 21.4801 25.1063L21.9413 25.0047C23.1418 24.7365 24.2444 24.141 25.1266 23.2843C26.0088 22.4277 26.6361 21.3435 26.9387 20.152C28.0204 15.8924 28.0204 11.4303 26.9387 7.1706C26.636 5.97902 26.0085 4.89466 25.126 4.038C24.2436 3.18135 23.1407 2.58595 21.94 2.31798L21.4801 2.21496ZM9.66352 7.05945C9.41141 7.02278 9.15433 7.07349 8.93507 7.20313H8.91608C8.40739 7.50134 7.94889 7.87681 7.55821 8.31869C7.23265 8.69416 7.0563 9.0737 7.01018 9.43968C6.98305 9.65655 7.00204 9.87614 7.0658 10.0835L7.09021 10.0971C7.45647 11.172 7.93396 12.2062 8.51726 13.1795C9.26939 14.5464 10.1949 15.8107 11.271 16.9409L11.3035 16.987L11.3551 17.025L11.3863 17.0615L11.4243 17.0941C12.5593 18.1725 13.8275 19.1018 15.1981 19.8593C16.7649 20.7119 17.7158 21.1144 18.2869 21.2825V21.2907C18.4537 21.3422 18.6057 21.3652 18.7589 21.3652C19.2453 21.3293 19.7057 21.1317 20.0666 20.804C20.5075 20.4137 20.8805 19.9541 21.1708 19.4431V19.4336C21.4435 18.9186 21.3512 18.4333 20.9578 18.1039C20.1677 17.414 19.3132 16.8013 18.4062 16.274C17.7985 15.9446 17.1813 16.1439 16.9317 16.4773L16.3986 17.1497C16.1246 17.4831 15.6281 17.437 15.6281 17.437L15.6145 17.4452C11.9099 16.5004 10.921 12.7525 10.921 12.7525C10.921 12.7525 10.8749 12.2428 11.2181 11.9826L11.8855 11.4458C12.2056 11.1855 12.4281 10.5701 12.0849 9.96289C11.5607 9.05575 10.9487 8.20223 10.2577 7.41459C10.1069 7.22922 9.89557 7.10297 9.66081 7.0581L9.66352 7.05945ZM15.9225 5.43016C15.7426 5.43016 15.5701 5.50157 15.4429 5.62867C15.3157 5.75577 15.2442 5.92816 15.2442 6.1079C15.2442 6.28765 15.3157 6.46004 15.4429 6.58714C15.5701 6.71424 15.7426 6.78564 15.9225 6.78564C17.6385 6.78564 19.0628 7.34546 20.1901 8.419C20.7693 9.00592 21.221 9.70129 21.5167 10.4631C21.8138 11.2262 21.9495 12.0408 21.9142 12.8568C21.9105 12.9458 21.9243 13.0347 21.9549 13.1184C21.9855 13.202 22.0324 13.2788 22.0927 13.3444C22.2146 13.4769 22.3841 13.5555 22.564 13.5631C22.7438 13.5706 22.9194 13.5064 23.0519 13.3847C23.1844 13.2629 23.2632 13.0935 23.2707 12.9138C23.3128 11.91 23.146 10.9085 22.781 9.97238C22.4144 9.03186 21.8585 8.17653 21.1478 7.45932L21.1342 7.44576C19.7356 6.11061 17.9654 5.43016 15.9225 5.43016ZM15.8764 7.65857C15.6965 7.65857 15.5239 7.72998 15.3967 7.85708C15.2696 7.98418 15.1981 8.15657 15.1981 8.33632C15.1981 8.51606 15.2696 8.68845 15.3967 8.81555C15.5239 8.94265 15.6965 9.01406 15.8764 9.01406H15.8994C17.1366 9.10216 18.0373 9.51423 18.6681 10.1906C19.3151 10.8873 19.6502 11.7535 19.6244 12.8243C19.6203 13.0041 19.6877 13.1781 19.812 13.3081C19.9363 13.4381 20.1072 13.5135 20.2871 13.5176C20.4669 13.5218 20.6411 13.4543 20.7712 13.3302C20.9013 13.206 20.9768 13.0352 20.9809 12.8555C21.0135 11.4499 20.5604 10.2367 19.6624 9.26889V9.26618C18.744 8.2821 17.4838 7.76159 15.9672 7.65993L15.9442 7.65722L15.8764 7.65857ZM15.8506 9.92901C15.7598 9.921 15.6684 9.93136 15.5817 9.95945C15.495 9.98755 15.4149 10.0328 15.3461 10.0925C15.2773 10.1522 15.2213 10.2252 15.1813 10.307C15.1414 10.3889 15.1184 10.4779 15.1136 10.5689C15.1089 10.6598 15.1225 10.7507 15.1537 10.8363C15.185 10.9218 15.2331 11.0002 15.2953 11.0668C15.3575 11.1333 15.4325 11.1866 15.5158 11.2236C15.599 11.2605 15.6889 11.2803 15.78 11.2818C16.3471 11.3116 16.7092 11.4824 16.9371 11.7115C17.1664 11.9419 17.3373 12.3119 17.3685 12.8907C17.3702 12.9817 17.3902 13.0714 17.4273 13.1544C17.4644 13.2375 17.5179 13.3122 17.5845 13.3742C17.6512 13.4362 17.7296 13.4841 17.8152 13.5152C17.9008 13.5462 17.9917 13.5597 18.0826 13.5549C18.1735 13.5501 18.2625 13.527 18.3443 13.4871C18.4261 13.4472 18.4991 13.3912 18.5588 13.3225C18.6184 13.2538 18.6637 13.1739 18.6918 13.0873C18.7199 13.0008 18.7303 12.9095 18.7223 12.8189C18.6789 12.0056 18.4239 11.2872 17.9016 10.7586C17.3767 10.2299 16.6618 9.97238 15.8506 9.92901Z" fill="#7C509A"/>
</svg>
